<?xml version="1.0" encoding="utf-8"?>
<!-- Generator: Adobe Illustrator 23.1.1, SVG Export Plug-In . SVG Version: 6.00 Build 0)  -->
<svg version="1.1" id="Livello_1" xmlns="http://www.w3.org/2000/svg" xmlns:xlink="http://www.w3.org/1999/xlink" x="0px" y="0px"
	 viewBox="0 0 256 256" style="enable-background:new 0 0 256 256;" xml:space="preserve">
<style type="text/css">
	.st0{fill:#FFFFFF;}
</style>
<rect width="256" height="256"/>
<g>
	<g>
		<g>
			<path class="st0" d="M50.1,173.5h0.6v2.5h3.2v-2.5h0.6v5.6h-0.6v-2.5h-3.2v2.5h-0.6V173.5z"/>
			<path class="st0" d="M61.2,173.5h0.6l2.5,5.6h-0.7l-0.7-1.5h-3l-0.7,1.5h-0.6L61.2,173.5z M62.8,177.1l-1.3-2.8l-1.3,2.8H62.8z"
				/>
			<path class="st0" d="M68.5,173.5h2.1c1.3,0,2.1,0.7,2.1,1.8v0c0,1.2-1,1.8-2.2,1.8h-1.4v2h-0.6V173.5z M70.5,176.6
				c0.9,0,1.5-0.5,1.5-1.2v0c0-0.8-0.6-1.2-1.5-1.2h-1.4v2.4H70.5z"/>
			<path class="st0" d="M76.9,173.5H79c1.3,0,2.1,0.7,2.1,1.8v0c0,1.2-1,1.8-2.2,1.8h-1.4v2h-0.6V173.5z M78.9,176.6
				c0.9,0,1.5-0.5,1.5-1.2v0c0-0.8-0.6-1.2-1.5-1.2h-1.4v2.4H78.9z"/>
			<path class="st0" d="M87,176.9l-2.3-3.4h0.8l1.9,2.8l1.9-2.8h0.7l-2.3,3.4v2.2H87V176.9z"/>
			<path class="st0" d="M99.4,173.5h2.4c0.6,0,1.1,0.2,1.5,0.5c0.2,0.2,0.4,0.5,0.4,0.9v0c0,0.7-0.4,1.1-0.9,1.3
				c0.7,0.2,1.2,0.6,1.2,1.3v0c0,1-0.8,1.5-2,1.5h-2.5V173.5z M101.7,176c0.8,0,1.3-0.3,1.3-1v0c0-0.5-0.4-0.9-1.2-0.9h-1.7v1.9
				H101.7z M101.9,178.5c0.8,0,1.4-0.4,1.4-1v0c0-0.6-0.5-1-1.5-1h-1.8v2H101.9z"/>
			<path class="st0" d="M108.2,176.8v-3.2h0.6v3.2c0,1.2,0.6,1.9,1.7,1.9c1,0,1.7-0.6,1.7-1.8v-3.2h0.6v3.2c0,1.6-0.9,2.5-2.3,2.5
				C109.1,179.2,108.2,178.3,108.2,176.8z"/>
			<path class="st0" d="M117,178.3l0.4-0.5c0.6,0.5,1.1,0.8,1.9,0.8c0.7,0,1.2-0.4,1.2-0.9v0c0-0.5-0.3-0.8-1.4-1.1
				c-1.3-0.3-1.9-0.7-1.9-1.6v0c0-0.9,0.8-1.5,1.8-1.5c0.8,0,1.4,0.2,2,0.7l-0.4,0.5c-0.5-0.4-1-0.6-1.6-0.6c-0.7,0-1.2,0.4-1.2,0.9
				v0c0,0.5,0.3,0.8,1.5,1.1c1.2,0.3,1.8,0.7,1.8,1.6v0c0,1-0.8,1.6-1.9,1.6C118.4,179.2,117.7,178.9,117,178.3z"/>
			<path class="st0" d="M125.6,173.5h0.6v5.6h-0.6V173.5z"/>
			<path class="st0" d="M130.9,173.5h0.6l3.5,4.5v-4.5h0.6v5.6h-0.5l-3.6-4.6v4.6h-0.6V173.5z"/>
			<path class="st0" d="M140.3,173.5h4v0.6h-3.4v1.9h3v0.6h-3v1.9h3.4v0.6h-4.1V173.5z"/>
			<path class="st0" d="M148.3,178.3l0.4-0.5c0.6,0.5,1.1,0.8,1.9,0.8c0.7,0,1.2-0.4,1.2-0.9v0c0-0.5-0.3-0.8-1.4-1.1
				c-1.3-0.3-1.9-0.7-1.9-1.6v0c0-0.9,0.8-1.5,1.8-1.5c0.8,0,1.4,0.2,2,0.7l-0.4,0.5c-0.5-0.4-1-0.6-1.6-0.6c-0.7,0-1.2,0.4-1.2,0.9
				v0c0,0.5,0.3,0.8,1.5,1.1c1.2,0.3,1.8,0.7,1.8,1.6v0c0,1-0.8,1.6-1.9,1.6C149.7,179.2,149,178.9,148.3,178.3z"/>
			<path class="st0" d="M156.4,178.3l0.4-0.5c0.6,0.5,1.1,0.8,1.9,0.8c0.7,0,1.2-0.4,1.2-0.9v0c0-0.5-0.3-0.8-1.4-1.1
				c-1.3-0.3-1.9-0.7-1.9-1.6v0c0-0.9,0.8-1.5,1.8-1.5c0.8,0,1.4,0.2,2,0.7l-0.4,0.5c-0.5-0.4-1-0.6-1.6-0.6c-0.7,0-1.2,0.4-1.2,0.9
				v0c0,0.5,0.3,0.8,1.5,1.1c1.2,0.3,1.8,0.7,1.8,1.6v0c0,1-0.8,1.6-1.9,1.6C157.8,179.2,157,178.9,156.4,178.3z"/>
			<path class="st0" d="M169.6,178.3l0.9-1c0.5,0.4,1.2,0.7,1.8,0.7c0.4,0,0.6-0.1,0.6-0.4v0c0-0.2-0.2-0.4-0.9-0.5
				c-1.2-0.3-2.1-0.6-2.1-1.7v0c0-1,0.8-1.8,2.2-1.8c0.9,0,1.7,0.3,2.3,0.7l-0.8,1.1c-0.5-0.4-1.1-0.5-1.6-0.5
				c-0.4,0-0.6,0.2-0.6,0.4v0c0,0.3,0.2,0.4,1,0.5c1.3,0.3,2.1,0.7,2.1,1.7v0c0,1.1-0.9,1.8-2.2,1.8
				C171.3,179.2,170.3,178.9,169.6,178.3z"/>
			<path class="st0" d="M178.2,176.7v-3.1h1.6v3.1c0,0.8,0.4,1.2,1,1.2c0.6,0,1-0.4,1-1.1v-3.1h1.6v3.1c0,1.8-1,2.6-2.6,2.6
				C179.2,179.2,178.2,178.4,178.2,176.7z"/>
			<path class="st0" d="M187.4,173.5h1.5v5.6h-1.5V173.5z"/>
			<path class="st0" d="M194.4,174.9h-1.7v-1.4h4.9v1.4H196v4.2h-1.5V174.9z"/>
			<path class="st0" d="M201.4,173.5h4.5v1.3h-2.9v0.8h2.7v1.2h-2.7v0.9h3v1.3h-4.5V173.5z"/>
		</g>
		<rect x="50.1" y="168.7" class="st0" width="155.6" height="0.7"/>
		<g>
			<polygon class="st0" points="69.6,164.6 64.1,149.5 58.4,164.6 57.7,164.6 50.1,144.4 52.5,143.9 58.1,158.9 63.8,143.9 
				64.4,143.9 70,158.8 75.6,143.9 77.9,144.4 70.3,164.6 			"/>
			<path class="st0" d="M88.3,155.4c0-1.1-0.3-2-0.8-2.6c-0.6-0.6-1.2-0.9-1.9-1c-0.1,0-0.2,0-0.4,0c-0.6,0-1.3,0.2-1.9,0.5
				c-0.8,0.4-1.4,1-1.8,1.9c0,0-0.1,0.1-0.1,0.3c-0.1,0.2-0.1,0.2-0.1,0.2v9.3l-2.2,0.4V144l0.2,0c0.3-0.1,0.6-0.2,0.9-0.3
				c0.3-0.1,0.6-0.2,0.8-0.2l0.3-0.1v8.1c0.4-0.5,0.9-0.9,1.4-1.2c0.7-0.4,1.5-0.6,2.4-0.6c1.8,0,3.1,0.5,4,1.6
				c0.9,1,1.4,2.4,1.4,4.1v8.6l-2.2,0.4V155.4z"/>
			<path class="st0" d="M94.3,150.4c0,0,0.7-0.2,1-0.3c0.3-0.1,0.6-0.2,0.9-0.3l0.3-0.1V164l-2.2,0.4V150.4z M95.3,147.9
				c-0.3,0-0.6-0.1-0.9-0.3c-0.3-0.2-0.4-0.5-0.4-0.9c0-0.4,0.1-0.8,0.4-1c0.3-0.2,0.5-0.3,0.9-0.3c0.3,0,0.6,0.1,0.9,0.3
				c0.3,0.2,0.4,0.5,0.4,0.9c0,0.4-0.1,0.8-0.4,1C95.9,147.8,95.6,147.9,95.3,147.9"/>
			<path class="st0" d="M104.9,164.5c-0.7,0-1.3-0.1-1.9-0.4c-0.6-0.3-1.1-0.7-1.4-1.3c-0.4-0.6-0.5-1.3-0.5-2.2v-8.4h-2.7l0.3-2
				h2.4V147l2.2-1.6v4.6h3.7v2h-3.7v7.9c0,0.4,0,0.8,0.1,1.1c0,0.3,0.1,0.5,0.3,0.7c0.1,0.2,0.3,0.3,0.6,0.4
				c0.3,0.1,0.6,0.1,1.1,0.1c0.3,0,0.6,0,0.9-0.1c0.3-0.1,0.6-0.2,0.9-0.3l0.3-0.1l-0.1,2.2l-0.1,0.1
				C106.4,164.3,105.7,164.4,104.9,164.5L104.9,164.5z"/>
			<path class="st0" d="M115.4,164.6c-0.1,0-0.2,0-0.2,0c-0.9,0-1.8-0.2-2.7-0.6c-0.9-0.4-1.6-0.9-2.3-1.5c-0.7-0.7-1.2-1.4-1.6-2.3
				c-0.4-0.9-0.6-1.9-0.6-3c0-1.5,0.3-2.7,0.9-3.8c0.6-1,1.3-1.8,2.2-2.4c0.9-0.6,1.9-0.9,2.9-1c0.3,0,0.6,0,0.8,0
				c0.8,0,1.5,0.1,2.2,0.4c1,0.3,1.8,0.9,2.5,1.7c0.7,0.8,1.2,1.8,1.4,3l0,0.2l-10.6,3.4c0.1,0.5,0.4,1,0.6,1.4
				c0.3,0.5,0.7,0.9,1.1,1.3c0.4,0.4,0.9,0.6,1.5,0.8c0.5,0.2,1.1,0.3,1.7,0.3c0.9,0,1.8-0.2,2.6-0.7c0.8-0.5,1.6-1,2.3-1.6l0.4-0.3
				v2.7l-0.1,0.1c-0.8,0.7-1.7,1.3-2.6,1.6C117.1,164.4,116.2,164.6,115.4,164.6 M115,151.9c-0.4,0-0.7,0.1-1.1,0.1
				c-0.6,0.1-1.2,0.4-1.7,0.8c-0.5,0.4-0.9,1-1.3,1.6c-0.3,0.6-0.5,1.3-0.5,2l7.7-2.7c-0.2-0.5-0.5-0.9-0.9-1.2
				c-0.4-0.3-1-0.6-1.5-0.7C115.4,151.9,115.2,151.9,115,151.9"/>
			<path class="st0" d="M141.6,164.2c-0.2-0.3-0.5-0.7-0.8-1.3c-0.3-0.6-0.7-1.2-1.2-1.8c-0.4-0.7-0.9-1.3-1.4-2
				c-0.5-0.7-1-1.3-1.5-1.9c-0.5-0.6-0.9-1-1.4-1.4c-0.4-0.3-0.8-0.5-1.1-0.5h-1.5v8.7l-2.3,0.2v-20.1h4.6c1.3,0,2.5,0.2,3.4,0.7
				c0.9,0.5,1.6,1.1,2.2,1.8c0.5,0.7,0.8,1.6,0.9,2.4c0.1,0.9,0,1.7-0.3,2.6c-0.3,0.8-0.8,1.6-1.4,2.2c-0.6,0.6-1.3,1-2.1,1.3
				c1.1,1.2,2.2,2.5,3.2,3.9c1,1.4,2.1,2.9,3,4.4l0.2,0.3l-2.5,0.6L141.6,164.2z M135.3,153.5c0.5,0,1.1-0.1,1.6-0.2
				c0.5-0.1,0.9-0.3,1.2-0.6c0.4-0.3,0.6-0.6,0.8-1.1c0.2-0.4,0.3-0.9,0.3-1.5c0-1.2-0.4-2.2-1.1-2.8c-0.7-0.6-1.7-0.9-2.9-0.9h-2.3
				v7.1H135.3z"/>
			<path class="st0" d="M154.3,163.2c-0.4,0.4-0.8,0.7-1.3,0.9c-0.6,0.3-1.3,0.5-2,0.5c-1.3,0-2.3-0.3-3.1-0.9
				c-0.8-0.6-1.3-1.3-1.6-2.2c-0.3-0.8-0.3-1.7-0.1-2.6c0.2-0.9,0.7-1.7,1.4-2.4c0.7-0.7,1.6-1.1,2.8-1.4c0.4-0.1,0.8-0.1,1.2-0.1
				c0.8,0,1.7,0.1,2.7,0.4v-1.3c0-0.8-0.2-1.3-0.7-1.7c-0.5-0.4-1.2-0.6-1.9-0.6c-0.7,0-1.4,0.2-2.1,0.5c-0.7,0.3-1.4,0.7-2,1.1
				l-0.4,0.3l0.4-2.6l0.1-0.1c0.6-0.3,1.3-0.6,2-0.9c0.7-0.2,1.5-0.4,2.2-0.4c1.2,0,2.2,0.2,2.8,0.6c0.6,0.4,1.1,1,1.4,1.7
				c0.3,0.7,0.4,1.5,0.4,2.4c0,0.9,0,1.7,0,2.6v3.3c0,1.1,0,2.2,0.1,3.3l0,0.2l-2.1,0.7L154.3,163.2z M152,156.9
				c-0.5,0-0.9,0.1-1.4,0.2c-0.5,0.1-0.9,0.3-1.2,0.6c-0.3,0.3-0.6,0.6-0.9,1c-0.2,0.4-0.3,0.8-0.3,1.3c0,0.7,0.2,1.2,0.7,1.6
				c0.5,0.4,1,0.7,1.6,0.8c0.2,0,0.3,0,0.5,0c0.5,0,1-0.1,1.5-0.3c0.6-0.3,1.2-0.7,1.6-1.4c0-0.1,0.1-0.1,0.1-0.2
				c0.1-0.1,0.1-0.2,0.1-0.2c0-0.3,0-0.7,0-1c0-0.3,0-0.7,0-1c0-0.2-0.1-0.3-0.2-0.5c-0.2-0.2-0.4-0.3-0.6-0.5
				c-0.2-0.1-0.5-0.2-0.7-0.3C152.4,157,152.2,156.9,152,156.9"/>
			<path class="st0" d="M165.3,164.6c-0.3,0-0.6,0-0.9-0.1c-1-0.1-1.9-0.5-2.8-1c-0.9-0.5-1.5-1.3-2-2.2c-0.1-0.2-0.2-0.4-0.3-0.8
				c-0.1-0.3-0.2-0.6-0.2-0.8V144c0,0,0.8-0.2,1.1-0.3c0.3-0.1,0.6-0.2,0.8-0.2l0.3-0.1v8.4c0.6-0.6,1.3-1.1,2.1-1.4
				c0.9-0.4,1.8-0.6,2.7-0.7c0.1,0,0.2,0,0.2,0c0.8,0,1.6,0.1,2.4,0.4c0.8,0.3,1.6,0.8,2.2,1.4c0.6,0.6,1.2,1.4,1.5,2.3
				c0.4,0.9,0.6,1.9,0.6,3.1c0,1.3-0.3,2.5-0.8,3.5c-0.5,1-1.2,1.8-2,2.4c-0.8,0.6-1.7,1.1-2.8,1.4
				C166.7,164.5,166,164.6,165.3,164.6 M165.9,151.8c-0.3,0-0.7,0-1,0.1c-0.7,0.2-1.3,0.5-1.9,0.9c-0.6,0.5-1.1,1.1-1.4,1.9
				c-0.1,0.1-0.1,0.3-0.2,0.5c-0.1,0.2-0.1,0.3-0.1,0.4v3.9c0,0.1,0,0.2,0.1,0.4c0.1,0.1,0.1,0.3,0.2,0.4c0.3,0.6,0.8,1.1,1.4,1.4
				c0.6,0.3,1.2,0.5,1.9,0.6c0.2,0,0.3,0,0.5,0c0.5,0,1-0.1,1.6-0.2c0.7-0.2,1.3-0.5,1.9-1c0.6-0.4,1-1,1.4-1.7
				c0.4-0.7,0.5-1.5,0.5-2.4v-0.2h0c0-0.9-0.2-1.6-0.5-2.3c-0.3-0.7-0.8-1.3-1.4-1.7c-0.6-0.4-1.2-0.7-1.9-0.9
				C166.6,151.9,166.3,151.8,165.9,151.8"/>
			<path class="st0" d="M181.7,164.6c-0.3,0-0.6,0-0.9-0.1c-1-0.1-1.9-0.5-2.8-1c-0.9-0.5-1.5-1.3-2-2.2c-0.1-0.2-0.2-0.4-0.3-0.8
				c-0.1-0.3-0.2-0.6-0.2-0.8V144c0,0,0.8-0.2,1.1-0.3c0.3-0.1,0.6-0.2,0.8-0.2l0.3-0.1v8.4c0.6-0.6,1.3-1.1,2.1-1.4
				c0.9-0.4,1.8-0.6,2.7-0.7c0.1,0,0.2,0,0.2,0c0.8,0,1.6,0.1,2.4,0.4c0.8,0.3,1.6,0.8,2.2,1.4c0.6,0.6,1.2,1.4,1.5,2.3
				c0.4,0.9,0.6,1.9,0.6,3.1c0,1.3-0.3,2.5-0.8,3.5c-0.5,1-1.2,1.8-2,2.4c-0.8,0.6-1.7,1.1-2.8,1.4
				C183.1,164.5,182.4,164.6,181.7,164.6 M182.4,151.8c-0.3,0-0.7,0-1,0.1c-0.7,0.2-1.3,0.5-1.9,0.9c-0.6,0.5-1.1,1.1-1.4,1.9
				c-0.1,0.1-0.1,0.3-0.2,0.5c-0.1,0.2-0.1,0.3-0.1,0.4v3.9c0,0.1,0,0.2,0.1,0.4c0.1,0.1,0.1,0.3,0.2,0.4c0.3,0.6,0.8,1.1,1.4,1.4
				c0.6,0.3,1.2,0.5,1.9,0.6c0.2,0,0.3,0,0.5,0c0.5,0,1-0.1,1.6-0.2c0.7-0.2,1.3-0.5,1.9-1c0.6-0.4,1-1,1.4-1.7
				c0.4-0.7,0.5-1.5,0.5-2.4v-0.2h0c0-0.9-0.2-1.6-0.5-2.3c-0.3-0.7-0.8-1.3-1.4-1.7c-0.6-0.4-1.2-0.7-1.9-0.9
				C183.1,151.9,182.7,151.8,182.4,151.8"/>
			<path class="st0" d="M192.9,150.4l0.2,0c0.3-0.1,0.6-0.2,0.9-0.3c0.3-0.1,0.6-0.2,0.9-0.3l0.3-0.1V164l-2.2,0.4V150.4z
				 M193.8,147.9c-0.3,0-0.6-0.1-0.9-0.3c-0.3-0.2-0.4-0.5-0.4-0.9c0-0.4,0.1-0.8,0.4-1c0.3-0.2,0.5-0.3,0.9-0.3
				c0.3,0,0.6,0.1,0.9,0.3c0.3,0.2,0.4,0.5,0.4,0.9c0,0.4-0.1,0.8-0.4,1C194.5,147.8,194.2,147.9,193.8,147.9"/>
			<path class="st0" d="M203.5,164.5c-0.7,0-1.3-0.1-1.9-0.4c-0.6-0.3-1.1-0.7-1.4-1.3c-0.4-0.6-0.5-1.3-0.5-2.2v-8.4H197l0.3-2h2.4
				V147l2.2-1.6v4.6h3.7v2h-3.7v7.9c0,0.4,0,0.8,0.1,1.1c0,0.3,0.1,0.5,0.3,0.7c0.1,0.2,0.3,0.3,0.6,0.4c0.3,0.1,0.6,0.1,1.1,0.1
				c0.3,0,0.6,0,0.9-0.1c0.3-0.1,0.6-0.2,0.9-0.3l0.3-0.1l-0.1,2.2l-0.1,0.1C205,164.3,204.3,164.4,203.5,164.5L203.5,164.5z"/>
		</g>
		<g>
			<path class="st0" d="M185.2,132c-4.3-3.1-10-4.1-14.9-4.2c2.8-1.7,8.5-2.4,9-0.9c0.4,1.2,3.6,1.4,5.5,0.8
				c1.9-0.6,0.9-3.1-2.5-4.1c-7.7-2.2-17.8,2.3-21.8,4.4c3-4.2,2.7-8.7,2.4-12.9c0.5-4.3,2.5-5.4,2.5-5.4l-1.3-0.7
				c2.8-3.2,9.4-5.3,10.8-7.9c1.7-3.3-0.4-7-0.4-7s-5.3,0-7.8-1.2c-7.2-3.5-14.1,1.5-15.3,2.6c-1.2,1.1-4.6,1.3-7.4-2.3
				c-0.2-0.2-0.3-0.4-0.5-0.6c-2-2.6-2.4-3.8-3.4-5.4c-7.1-11.9-18-10.3-19.8-10c-2,0.3-5.1,1.5-1.2,1.7c2.3,0.1,4.9,1.6,6.7,2.9
				c-0.1,0-0.1,0-0.2,0c-10.3,0.1-17,10-15.1,9.3c1.9-0.8,11.5-5.9,20.7,3.3c11.2,11.2,20.1,4.2,20.1,4.2s0.2,2.5,0.5,5
				c-1.5-0.2-3.3,0.1-5.5,1c0,0,4.5,0.8,4.1,3.5c-0.2,1.6-1.3,2.3-2.4,2.7c-0.9,0.2-2.1,0.3-3.4,0.2c-1.2-0.1-2.1-0.2-2.9-0.3
				c0-0.2,0-0.5-0.1-0.8c-0.1-0.3-0.3-1.1-0.9-1.1c-0.1,0-0.1,0-0.2,0c0,0,0,0,0,0l-0.4-0.4c0,0,0-0.1,0.1-0.1
				c0.1-0.4,0-0.8-0.2-1.2c-0.2-0.5-0.5-0.9-1-0.9c-0.1,0-0.1,0-0.2,0l-0.4-0.6c0.2-0.2,0.2-0.4,0.2-0.6c0-0.2-0.1-0.5-0.3-0.8
				c-0.2-0.4-0.5-0.9-1-0.9c-0.1,0-0.3,0-0.4,0.1c-0.1,0-0.1,0.1-0.1,0.1l-0.5-0.3c0-0.3-0.1-0.6-0.3-0.7c-0.2-0.1-0.5-0.2-0.8-0.3
				c-0.2,0-0.4-0.1-0.6-0.1c-0.6,0-0.8,0.3-0.9,0.6l-0.7,0.1c0,0-0.1-0.1-0.1-0.1c-0.2-0.2-0.4-0.3-0.8-0.4
				c-0.3-0.1-0.6-0.2-0.8-0.2c-0.1,0-0.3,0-0.4,0.1l-0.5-0.4c0.1-0.2,0.1-0.5-0.1-0.7c-0.1-0.2-0.3-0.4-0.7-0.6
				c-0.3-0.2-0.6-0.4-0.9-0.4c-0.2,0-0.4,0.1-0.6,0.3l-0.5-0.2c0-0.1-0.1-0.3-0.2-0.4c-0.2-0.3-0.7-0.4-1.1-0.4c-0.2,0-0.3,0-0.4,0
				c-0.7,0-0.9,0.3-1,0.6l-0.8,0.1c-0.2-0.2-0.4-0.4-0.8-0.6c-0.3-0.1-0.5-0.2-0.7-0.2l-0.1-0.5c0.1,0,0.1-0.1,0.2-0.2
				c0.2-0.3,0.3-0.5,0.1-0.8c-0.1-0.2-0.3-0.4-0.6-0.7c-0.3-0.2-0.6-0.5-1-0.5c-0.2,0-0.4,0.1-0.6,0.3c0,0,0,0,0,0l-0.5-0.2
				c0-0.1,0-0.1,0-0.2c0-0.2-0.1-0.5-0.3-0.8c-0.2-0.4-0.5-0.9-1-0.9c-0.1,0-0.3,0-0.4,0.1c-0.1,0-0.1,0.1-0.2,0.1l-0.9-0.2
				c0-0.2-0.2-0.4-0.4-0.5c-0.2-0.1-0.5-0.1-0.9-0.1c-0.4,0-0.8,0-1,0.2c-0.1,0.1-0.3,0.3-0.3,0.6c0,0,0,0,0,0.1l-0.7,0.4
				c-0.1-0.1-0.2-0.1-0.3-0.2c-0.2-0.1-0.5-0.1-0.9-0.1c-0.4,0-0.8,0-1,0.2c-0.1,0.1-0.2,0.1-0.2,0.3l-0.7-0.2c0-0.1,0-0.2-0.1-0.3
				c-0.1-0.2-0.3-0.4-0.6-0.6c-0.3-0.2-0.6-0.4-1-0.4c-0.2,0-0.4,0.1-0.6,0.3c0,0,0,0,0,0l-0.8-0.2c0-0.2-0.1-0.3-0.3-0.5
				c-0.2-0.1-0.4-0.3-0.8-0.3c-0.3-0.1-0.5-0.1-0.7-0.1c-0.5,0-0.7,0.2-0.8,0.5l-0.8-0.2c0-0.3-0.3-0.6-0.7-1
				c-0.3-0.2-0.6-0.5-1-0.5c-0.2,0-0.4,0.1-0.6,0.3l-0.5-0.1c0-0.1,0-0.2,0-0.3c0-0.2-0.2-0.7-0.9-0.7c-0.2,0-0.3,0-0.6,0.1
				c-0.3,0.1-0.9,0.2-1.1,0.6l-0.7,0c0-0.1-0.1-0.3-0.2-0.4c-0.2-0.2-0.4-0.3-0.7-0.5c-0.4-0.2-0.6-0.2-0.8-0.2
				c-0.3,0-0.6,0.2-0.7,0.5l-0.7-0.1c-0.1-0.4-0.4-0.7-1.4-0.6c-0.4,0.1-0.8,0.2-1.1,0.5c-0.1,0.1-0.1,0.2-0.1,0.4
				C92.3,90.5,92,90,92,90l-2.3,0.7l-0.4,0.7l0,0l-0.6,0.2l0,0.1c-1.1-2.9-4.3-4.9-8.1-4.8c-4.5,0.2-8,3.5-7.9,7.3
				c0.2,3.9,3.9,6.8,8.5,6.6c4.5-0.2,8-3.5,7.9-7.3c0-0.3,0-0.5-0.1-0.8l0.6-0.2l0.7,0.5l2.4-0.5c0-0.4,0-0.7-0.1-1
				c0.1,0.2,0.4,0.4,0.9,0.4c0.1,0,0.3,0,0.5,0c0.3,0,0.6-0.1,0.8-0.3c0.2-0.1,0.3-0.2,0.3-0.4l0.7,0.1c0,0.1,0.1,0.2,0.2,0.3
				c0.2,0.2,0.4,0.3,0.7,0.5c0.2,0.1,0.6,0.2,0.8,0.2c0.3,0,0.6-0.2,0.7-0.5c0,0,0,0,0,0l0.7,0c0,0,0,0,0,0.1
				c0.1,0.3,0.3,0.7,0.9,0.7c0.2,0,0.3,0,0.6-0.1c0.3-0.1,0.6-0.1,0.8-0.3c0,0,0.1-0.1,0.1-0.1l0.6,0.2c0,0.1,0,0.3,0.1,0.4
				c0.1,0.2,0.3,0.4,0.6,0.7c0.3,0.2,0.6,0.5,1,0.5c0.2,0,0.4-0.1,0.6-0.3c0,0,0,0,0-0.1l0.8,0.2c0.1,0.6,0.8,0.7,1.1,0.8
				c0.3,0.1,0.5,0.1,0.7,0.1c0.5,0,0.7-0.2,0.8-0.4l0.7,0.2c0,0.5,0.5,0.8,0.7,1c0.3,0.2,0.6,0.4,1,0.4c0.2,0,0.4-0.1,0.6-0.3
				c0,0,0,0,0,0l0.8,0.2c0.1,0.7,1,0.7,1.3,0.7c0.4,0,0.8,0,1-0.2c0.1-0.1,0.3-0.3,0.3-0.6c0,0,0,0,0-0.1l0.7-0.4
				c0.3,0.3,0.9,0.3,1.1,0.3c0.4,0,0.8,0,1-0.2c0.1-0.1,0.2-0.2,0.2-0.3l0.7,0.2c-0.1,0.4,0.2,0.8,0.3,1c0.2,0.4,0.5,0.9,1,0.9
				c0.1,0,0.3,0,0.4-0.1c0.1,0,0.1-0.1,0.2-0.1l0.6,0.2c0,0.5,0.5,0.8,0.7,1c0.3,0.2,0.6,0.4,0.9,0.5l0.1,0.5
				c-0.1,0.1-0.3,0.2-0.3,0.4c-0.3,0.8,0.6,1.2,0.9,1.3c0.2,0.1,0.5,0.2,0.8,0.2c0.4,0,0.6-0.2,0.7-0.5c0-0.1,0.1-0.2,0.1-0.2
				l0.6-0.1c0.1,0.2,0.2,0.3,0.3,0.4c0.2,0.1,0.5,0.2,0.9,0.2c0.2,0,0.3,0,0.4,0c0.5,0,0.8-0.2,0.9-0.4l0.4,0.1
				c-0.1,0.5,0.6,0.9,0.8,1.1c0.3,0.2,0.6,0.4,0.9,0.4c0.1,0,0.3,0,0.4-0.1l0.5,0.4c0,0,0,0,0,0.1c-0.1,0.3-0.1,0.6,0.2,0.8
				c0.2,0.2,0.4,0.3,0.8,0.4c0.3,0.1,0.6,0.2,0.8,0.2c0.4,0,0.6-0.2,0.8-0.5c0-0.1,0-0.1,0.1-0.2l0.6-0.1c0.2,0.5,0.9,0.6,1.1,0.6
				c0.2,0,0.4,0.1,0.6,0.1c0.3,0,0.6-0.1,0.7-0.3l0.4,0.3c-0.1,0.4,0.2,0.9,0.3,1.1c0.2,0.4,0.5,0.9,1,0.9c0,0,0.1,0,0.1,0l0.5,0.6
				c-0.4,0.4-0.1,1.1,0,1.4c0.1,0.3,0.4,0.9,1,0.9c0.1,0,0.2,0,0.3-0.1l0.3,0.3c0,0,0,0,0,0.1c-0.2,0.3-0.2,0.6,0,1.2c0,0,0,0,0,0
				c-2.3-0.7-4.7-2.2-15.8-6.5c-7.2-2.7-12.2-1.9-15.6,0.1c0.2-0.8,0.2-1.7-0.1-2.7c-1.2-4-5.5-4-6.8-3.7c-1.3,0.3-0.9,0.9-0.9,0.9
				c1.3,0.8,1.1,3.4,1.1,3.4c0.3,4.9,4.4,3.7,4.4,3.7c-2.9,2.5-4.1,5.5-4.1,5.5s-2.2,6.3-5.7,2.3s-6.2-1.6-7.5-1.2
				c-1.3,0.4-5.8,5.5-7.9,7.6c-2.1,2.1-4.4,2.2-6.7,2c-2.3-0.2-8.7,0.5-5.9,3.3c2.7,2.7,10.3,0,13.4-2.1c3.1-2.1,3.8-6,7.9-3
				c0,0,0.1,0.1,0.1,0.1c-0.6,3.5-1.6,9.2-4.5,9.8c-3.7,0.6-6.6,7.9-2.2,5.3c4.6-2.7,7.6-6.5,9.1-13c3.1,2.9,6.2,6.4,10.9,7.6
				c12,3.1,16.8-12.4,25.6-5c11.3,9.5,20.7,7.7,20.7,7.7s2.1,4.5,8,4.4c6.4-0.2,11.9-5.4,16.5-4.9c6.7,0.8,4.7,4.3,10.1,5.9
				C187.4,138.5,190.8,136,185.2,132z M81.1,99c-3.2,0.1-5.9-2-6-4.7c-0.1-2.7,2.4-5.1,5.6-5.2c3.2-0.1,5.9,2,6,4.7
				C86.8,96.5,84.3,98.8,81.1,99z M94.5,91.4c-0.2,0.1-0.4,0.2-0.6,0.2c-0.2,0-0.3,0-0.4,0c-0.4,0-0.4-0.2-0.5-0.3
				c0-0.1,0-0.2,0-0.2c0.1-0.2,0.6-0.2,0.7-0.3c0.2,0,0.3,0,0.4,0c0.1,0,0.1,0,0.2,0c-0.1,0-0.2,0.1-0.2,0.2c0,0.1,0.1,0.3,0.2,0.3
				L94.5,91.4C94.6,91.4,94.5,91.4,94.5,91.4z M97.5,92.1c-0.2,0-0.5-0.1-0.6-0.2c-0.2-0.1-0.4-0.2-0.5-0.3c0.1,0,0.2-0.1,0.2-0.2
				c0-0.1-0.1-0.3-0.2-0.3c0,0,0.1-0.1,0.2-0.1c0.2,0,0.5,0.1,0.6,0.2c0.3,0.1,0.5,0.2,0.6,0.3c0,0,0,0,0,0.1l-0.2,0
				c-0.1,0-0.3,0.1-0.2,0.2C97.4,92,97.5,92.1,97.5,92.1C97.6,92.1,97.6,92.1,97.5,92.1L97.5,92.1C97.6,92.1,97.6,92.1,97.5,92.1z
				 M100.3,92.2c-0.2,0-0.3,0.1-0.5,0.1c-0.3,0-0.4-0.1-0.4-0.2l0.1,0c0.1,0,0.3-0.1,0.2-0.2c0-0.1,0-0.2-0.1-0.2
				c0.1,0,0.3-0.1,0.5-0.1c0.2,0,0.3-0.1,0.5-0.1c0.3,0,0.4,0.1,0.4,0.2c0,0,0,0,0,0l-0.1,0c-0.1,0-0.3,0-0.3,0.2
				c0,0.1,0,0.2,0.1,0.3C100.6,92.2,100.5,92.2,100.3,92.2z M102.9,93.1c-0.2-0.2-0.4-0.3-0.5-0.5c0,0,0,0,0,0l0.2,0.1
				c0,0,0,0,0.1,0c0.1,0,0.2-0.1,0.2-0.2c0-0.1,0-0.2-0.1-0.3c0.2,0.1,0.3,0.2,0.5,0.3c0.2,0.2,0.3,0.3,0.4,0.4
				c-0.1,0-0.2,0.1-0.3,0.2c0,0.1,0,0.3,0.2,0.3c0,0-0.1,0-0.1,0C103.4,93.5,103.1,93.3,102.9,93.1z M106.8,94.2
				c-0.1,0-0.3,0-0.5-0.1c-0.3-0.1-0.4-0.1-0.5-0.2c0.1,0,0.1-0.1,0.1-0.2c0-0.1,0-0.3-0.2-0.3l-0.1,0c0.1-0.1,0.1-0.1,0.3-0.1
				c0.1,0,0.3,0,0.5,0.1c0.2,0.1,0.4,0.1,0.5,0.2c-0.1,0-0.2,0.1-0.2,0.2c0,0.1,0,0.3,0.2,0.3l0.2,0C107.1,94.2,107,94.2,106.8,94.2
				z M109.4,95.1c-0.3-0.2-0.4-0.3-0.5-0.4c0.1,0,0.2-0.1,0.2-0.2c0-0.1,0-0.2-0.1-0.3c0,0,0.1,0,0.1,0c0.2,0,0.5,0.2,0.7,0.3
				c0.2,0.2,0.4,0.3,0.4,0.4c-0.1,0-0.2,0.1-0.3,0.2c0,0.1,0,0.2,0.1,0.3c0,0,0,0-0.1,0C109.9,95.4,109.6,95.2,109.4,95.1z
				 M112.8,96c-0.3,0-0.5,0-0.6-0.1c0.1,0,0.1-0.1,0.2-0.2c0-0.1,0-0.3-0.2-0.3l-0.1,0c0,0,0,0,0,0c0.2-0.1,0.5-0.1,0.7-0.1
				c0.3,0,0.5,0,0.7,0.1c0,0,0,0,0,0l0,0c-0.1,0.1-0.2,0.2-0.1,0.3c0,0.1,0.1,0.1,0.2,0.1c0,0,0,0,0,0C113.4,96,113,96,112.8,96z
				 M116.7,94.8c-0.2,0.1-0.5,0.1-0.7,0.1c-0.4,0-0.6,0-0.7-0.1l0.1,0c0.1-0.1,0.2-0.2,0.1-0.3c0-0.1-0.1-0.1-0.2-0.1
				c0.2-0.1,0.5-0.1,0.7-0.1c0.3,0,0.5,0,0.6,0.1c-0.1,0-0.1,0.1-0.1,0.2C116.4,94.6,116.5,94.7,116.7,94.8L116.7,94.8
				C116.7,94.8,116.7,94.8,116.7,94.8z M118.6,95.9c-0.2-0.3-0.2-0.5-0.2-0.7l0.1,0c0,0,0,0,0.1,0c0.1,0,0.2-0.1,0.2-0.2
				c0,0,0-0.1,0-0.1c0.2,0.1,0.4,0.4,0.5,0.6c0.1,0.3,0.2,0.4,0.2,0.6l-0.1,0c-0.1,0-0.3,0-0.3,0.2c0,0.1,0,0.1,0,0.2
				C118.9,96.4,118.7,96.1,118.6,95.9z M121.3,97.6c-0.2-0.2-0.3-0.3-0.4-0.4l0.1,0c0,0,0.1,0,0.1,0c0.1,0,0.2-0.1,0.2-0.2
				c0-0.1,0-0.3-0.2-0.3l-0.2-0.1c0,0,0.1,0,0.1,0c0.2,0,0.5,0.2,0.7,0.4c0.2,0.2,0.3,0.3,0.4,0.4c-0.1,0-0.1-0.1-0.2-0.1
				c-0.1,0-0.2,0.1-0.2,0.3l0,0.2C121.6,97.9,121.4,97.7,121.3,97.6z M123.3,100.4c-0.2,0-0.4-0.1-0.6-0.2c-0.6-0.2-0.7-0.4-0.7-0.6
				c0,0.1,0.1,0.1,0.2,0.1c0,0,0,0,0,0c0.1,0,0.2-0.1,0.2-0.3l0-0.1c0.2,0,0.3,0.1,0.5,0.1c0.2,0.1,0.3,0.1,0.4,0.2
				c-0.1,0-0.2,0.1-0.2,0.3c0,0.1,0.1,0.2,0.3,0.2c0,0,0,0,0,0l0.2,0C123.5,100.4,123.5,100.4,123.3,100.4z M126,100.3
				c-0.3,0-0.5-0.1-0.6-0.2c0,0,0,0,0,0l0,0c0.1,0,0.2-0.1,0.2-0.3c0-0.1-0.1-0.2-0.2-0.2c0.1,0,0.2,0,0.3,0c0.1,0,0.2,0,0.4,0
				c0.2,0,0.4,0.1,0.5,0.1c-0.1,0-0.1,0.1-0.1,0.1c0,0.1,0,0.3,0.2,0.3l0.2,0.1C126.7,100.3,126.5,100.3,126,100.3z M128.8,101.2
				c-0.3-0.2-0.5-0.3-0.5-0.5l0.2,0.1c0,0,0.1,0,0.1,0c0.1,0,0.2-0.1,0.2-0.2c0-0.1,0-0.3-0.2-0.3l-0.1,0c0.2,0,0.4,0.2,0.6,0.3
				c0.3,0.2,0.4,0.3,0.5,0.4c0,0,0,0.1,0,0.1l-0.1-0.1c-0.1-0.1-0.3-0.1-0.4,0c-0.1,0.1-0.1,0.3,0,0.4l0,0
				C129.1,101.4,128.9,101.3,128.8,101.2z M132,103.3c-0.2,0-0.4-0.1-0.6-0.2c-0.3-0.1-0.5-0.2-0.6-0.3c-0.1-0.1-0.1-0.1-0.1-0.2
				l0,0c0,0,0.1,0.1,0.2,0.1c0.1,0,0.1,0,0.2-0.1c0.1-0.1,0.1-0.2,0-0.3c0.2,0,0.4,0.1,0.5,0.1c0.2,0.1,0.3,0.1,0.4,0.2
				c-0.1,0-0.2,0.1-0.2,0.3c0,0.1,0.1,0.2,0.3,0.2c0,0,0,0,0,0l0.2,0C132.2,103.3,132.2,103.3,132,103.3z M135.2,103.2
				c-0.1,0-0.3,0-0.5-0.1c-0.3-0.1-0.5-0.1-0.6-0.2c0.1,0,0.2-0.1,0.2-0.3c0-0.1-0.1-0.2-0.3-0.2c0.1,0,0.2-0.1,0.3-0.1
				c0.1,0,0.3,0,0.5,0.1c0.3,0.1,0.5,0.1,0.6,0.2c0,0,0,0,0,0c-0.1,0-0.2,0-0.2,0.1c-0.1,0.1,0,0.3,0.1,0.3l0,0
				C135.3,103.2,135.3,103.2,135.2,103.2z M137,104.6c-0.1-0.2-0.2-0.4-0.2-0.5l0.2,0.1c0,0,0.1,0,0.1,0c0.1,0,0.2,0,0.2-0.1
				c0.1-0.1,0-0.3-0.1-0.3l-0.2-0.1c0.2,0,0.4,0.4,0.5,0.6c0.1,0.3,0.2,0.5,0.2,0.6c0,0.1,0,0.1-0.1,0.2c-0.1-0.1-0.2-0.1-0.3,0
				c0,0-0.1,0.1-0.1,0.1C137.3,105.1,137.1,104.8,137,104.6z M138.6,107.5c-0.2-0.4-0.2-0.6-0.2-0.8l0.2,0.2
				c0.1,0.1,0.1,0.1,0.2,0.1c0.1,0,0.1,0,0.2-0.1c0.1,0,0.1-0.1,0.1-0.2c0.1,0.1,0.1,0.2,0.2,0.4c0.1,0.3,0.2,0.5,0.2,0.7l-0.1-0.1
				c-0.1-0.1-0.3-0.1-0.4,0c-0.1,0.1-0.1,0.2-0.1,0.2C138.8,107.9,138.7,107.7,138.6,107.5z M140.2,110c-0.1-0.3-0.1-0.6,0-0.7
				l0.2,0.2c0,0,0.1,0.1,0.2,0.1c0.1,0,0.1,0,0.2-0.1c0,0,0,0,0-0.1c0,0.1,0.1,0.2,0.1,0.4c0.1,0.3,0.1,0.5,0.1,0.6
				c-0.2,0-0.5-0.1-0.7-0.2C140.3,110.2,140.2,110.1,140.2,110z"/>
			<polygon class="st0" points="81.5,89.3 79.5,94 80.8,95.4 84,92.7 81.2,93.6 			"/>
		</g>
	</g>
	<g>
		<path class="st0" d="M202.2,76.8c2.1,0,3.7,1.6,3.7,3.7c0,2.1-1.7,3.7-3.8,3.7s-3.8-1.6-3.8-3.7C198.4,78.4,200.1,76.8,202.2,76.8
			L202.2,76.8z M202.1,77.5c-1.6,0-2.8,1.3-2.8,2.9c0,1.6,1.2,2.9,2.9,2.9c1.6,0,2.8-1.3,2.8-2.9C205,78.9,203.8,77.5,202.1,77.5
			L202.1,77.5z M201.6,82.4h-0.8v-3.7c0.3,0,0.8-0.1,1.4-0.1c0.7,0,1,0.1,1.3,0.3c0.2,0.2,0.4,0.4,0.4,0.8c0,0.4-0.3,0.7-0.8,0.9v0
			c0.4,0.1,0.5,0.4,0.6,0.9c0.1,0.6,0.2,0.8,0.3,0.9H203c-0.1-0.1-0.2-0.4-0.3-0.9c-0.1-0.4-0.3-0.6-0.8-0.6h-0.4V82.4z M201.6,80.3
			h0.4c0.5,0,0.8-0.2,0.8-0.5c0-0.3-0.2-0.6-0.8-0.6c-0.2,0-0.4,0-0.5,0V80.3z"/>
	</g>
</g>
</svg>
